<svg xmlns="http://www.w3.org/2000/svg" viewBox="0 0 713.42 512.01"><defs><style>.cls-1{fill:#fff;}</style></defs><title>Asset 6</title><g id="Layer_2" data-name="Layer 2"><g id="Logo_Stacked" data-name="Logo Stacked"><path class="cls-1" d="M10.2,153.75Q.24,139.22.25,113.62V55.51q0-27,9.75-41T44.54.45q22.14,0,31.8,12T86,47.79v13H64.24V49.22a113.48,113.48,0,0,0-1-17.48A16.07,16.07,0,0,0,58.05,22q-4.17-3.66-13.31-3.66-9.35,0-13.92,4a19,19,0,0,0-6,11,98.43,98.43,0,0,0-1.42,18.79v65.22q0,12.6,2,19.7c1.35,4.75,3.56,8.13,6.6,10.16s7.28,3.05,12.7,3.05q8.73,0,13-3.86a17.61,17.61,0,0,0,5.39-10.56,117.76,117.76,0,0,0,1.11-18.29V105.29H86v12.19q0,24.58-9.25,37.69t-32.2,13.1Q20.17,168.27,10.2,153.75Z"/><path class="cls-1" d="M217.44,1.88H281V18.33H240.39V73.19h31.49V89.44H240.39v77H217.44Z"/><path class="cls-1" d="M296.87,1.88h63.6V18.33H319.83V73.19h31.49V89.44H319.83v77h-23Z"/><path class="cls-1" d="M376.31,1.88h63.8V18.94H399.27V73.39h33.12V89.65H399.27V150h41.24v16.45h-64.2Z"/><path class="cls-1" d="M459,1.88h63.8V18.94H482V73.39h33.12V89.65H482V150H523.2v16.45H459Z"/><path class="cls-1" d="M587.4,47.59a9.37,9.37,0,0,0,8.53-5.69q2.45-5.28,2.44-17.07H587.6V1.88h23.78v19.7q0,16.47-4.68,25t-15.44,9.15Z"/><path class="cls-1" d="M630.47,1.88h15.65l46.72,109.3V1.88h19.1V166.44H697.31L650,54.09V166.44H630.47Z"/><path class="cls-1" d="M176.42,12.85,138,164.52a32.17,32.17,0,0,0,11.32,2.1c28,0,50.79-37.3,50.79-83.31C200.12,53.64,190.65,27.61,176.42,12.85Z"/><path class="cls-1" d="M125.31,156.73,164.09,3.59A32.86,32.86,0,0,0,149.33,0c-28.06,0-50.8,37.3-50.8,83.31C98.53,115.07,109.37,142.68,125.31,156.73Z"/><path class="cls-1" d="M81.34,203.8q-45.53,0-63.43,25.75T0,304.92V411.64q0,47,18.29,73.69T81.34,512q42.16,0,59.15-24.06t17-69.22V396.34H117.54v22.39q0,21.27-2.05,33.58t-9.89,19.4q-7.84,7.1-23.88,7.09-14.94,0-23.32-5.59T46.27,454.55q-3.74-13.07-3.73-36.19V298.58q0-21.63,2.61-34.51t11-20.15q8.39-7.28,25.56-7.28,16.78,0,24.44,6.72t9.51,17.91q1.86,11.19,1.87,32.09v21.26h39.92V290.74q0-42.9-17.72-64.92T81.34,203.8Z"/><path class="cls-1" d="M275,203.8q-44,0-63.43,24.26t-19.41,71.27V413.88q0,47.76,19.22,72.95T275,512q43.65,0,63.06-25.37t19.4-72.39V299.33q0-46.65-19.21-71.09T275,203.8Zm-40.3,86.94q0-27.6,8.21-40.85T275,236.64a57.82,57.82,0,0,1,15.54,1.88L237.47,450.78a120,120,0,0,1-2.77-27.57Zm80.23,132.47q0,28-8.21,41.79T275,478.8a54.64,54.64,0,0,1-17-2.4l53.68-214.71q3.25,11.69,3.26,29.05Z"/><path class="cls-1" d="M464.55,206.42H398.87V508.65h69q46.27,0,66.23-24.44t20-74.44V298.58q0-47.38-20.34-69.78T464.55,206.42Zm47,195.52q0,29.85-2.42,44.59t-12.32,23.32q-9.88,8.58-31.9,8.58H441V237.76H463.8q21.27,0,31.34,6.53t13.25,20.15q3.17,13.62,3.17,39.36Z"/><polygon class="cls-1" points="637.68 478.43 637.68 367.61 698.5 367.61 698.5 337.76 637.68 337.76 637.68 237.76 712.68 237.76 712.68 206.42 595.51 206.42 595.51 508.65 713.42 508.65 713.42 478.43 637.68 478.43"/></g></g></svg>