<svg xmlns="http://www.w3.org/2000/svg" viewBox="0 0 1010.32 146.72"><title>Asset 4</title><g id="Layer_2" data-name="Layer 2"><g id="Logo_Horizontal" data-name="Logo Horizontal"><path d="M8.61,134.16Q0,121.59,0,99.46V49.21Q0,25.86,8.43,13.72T38.3,1.6Q57.44,1.6,65.8,12t8.34,30.57V53.78H55.34v-10a97.58,97.58,0,0,0-.88-15.11A13.88,13.88,0,0,0,50,20.22q-3.6-3.15-11.5-3.16-8.08,0-12,3.43A16.41,16.41,0,0,0,21.26,30,85.16,85.16,0,0,0,20,46.23v56.39q0,10.89,1.76,17t5.71,8.79q3.95,2.63,11,2.63,7.55,0,11.24-3.34a15.27,15.27,0,0,0,4.66-9.13,101.82,101.82,0,0,0,1-15.81V92.26h18.8V102.8q0,21.26-8,32.59T38.3,146.72Q17.23,146.72,8.61,134.16Z"/><path d="M187.81,2.83h55V17.06H207.66V64.5h27.23v14H207.66v66.59H187.81Z"/><path d="M256.5,2.83h55V17.06H276.35V64.5h27.23v14H276.35v66.59H256.5Z"/><path d="M325.19,2.83h55.17V17.59H345V64.67h28.64V78.73H345v52.18h35.67v14.23H325.19Z"/><path d="M396.69,2.83h55.17V17.59H416.55V64.67h28.63V78.73H416.55v52.18h35.66v14.23H396.69Z"/><path d="M507.73,42.36a8.1,8.1,0,0,0,7.37-4.92q2.11-4.56,2.11-14.76H507.9V2.83h20.56v17q0,14.23-4,21.61t-13.36,7.91Z"/><path d="M545,2.83H558.5l40.4,94.52V2.83h16.52V145.14H602.77L561.83,48v97.16H545Z"/><path d="M152.34,12.32,119.13,143.48a27.92,27.92,0,0,0,9.78,1.81c24.26,0,43.92-32.25,43.92-72C172.83,47.59,164.65,25.09,152.34,12.32Z"/><path d="M108.15,136.74,141.68,4.31a28.49,28.49,0,0,0-12.77-3.1C104.65,1.21,85,33.46,85,73.25,85,100.72,94.36,124.59,108.15,136.74Z"/><path d="M712.72,0q-21.44,0-29.87,12.12t-8.43,35.49V97.86q0,22.13,8.61,34.69t29.69,12.57q19.85,0,27.84-11.34t8-32.59V90.65h-18.8v10.54a101.67,101.67,0,0,1-1,15.82,15.2,15.2,0,0,1-4.65,9.13q-3.69,3.35-11.25,3.34-7,0-11-2.64t-5.71-8.78q-1.76-6.15-1.75-17V44.62a84.42,84.42,0,0,1,1.23-16.25,16.31,16.31,0,0,1,5.18-9.48q3.95-3.43,12-3.43,7.9,0,11.51,3.16a13.88,13.88,0,0,1,4.48,8.44,98.8,98.8,0,0,1,.88,15.1v10h18.8V40.94q0-20.2-8.35-30.57T712.72,0Z"/><path d="M803.9,0Q783.17,0,774,11.42T764.9,45V98.91q0,22.49,9,34.35t30,11.86q20.55,0,29.69-12t9.13-34.08V45q0-22-9-33.47T803.9,0Zm-19,40.94q0-13,3.87-19.24t15.11-6.24a27.09,27.09,0,0,1,7.31.89l-25,99.93a56.26,56.26,0,0,1-1.31-13ZM822.7,103.3q0,13.19-3.87,19.68t-14.93,6.5a25.7,25.7,0,0,1-8-1.13l25.27-101.1a51.93,51.93,0,0,1,1.54,13.69Z"/><path d="M893.14,1.23H862.22V143.54h32.5q21.79,0,31.19-11.51t9.4-35V44.62q0-22.3-9.58-32.85T893.14,1.23Zm22.14,92.06q0,14.05-1.14,21a17.86,17.86,0,0,1-5.8,11q-4.67,4-15,4H882.07V16h10.72q10,0,14.76,3.07a14.76,14.76,0,0,1,6.24,9.49q1.49,6.42,1.49,18.53Z"/><polygon points="974.66 129.3 974.66 77.13 1003.3 77.13 1003.3 63.07 974.66 63.07 974.66 15.99 1009.97 15.99 1009.97 1.23 954.81 1.23 954.81 143.53 1010.32 143.53 1010.32 129.3 974.66 129.3"/></g></g></svg>